<svg xmlns="http://www.w3.org/2000/svg" width="974.49" height="354.547" viewBox="0 0 974.49 354.547"><g transform="translate(-44 -223)"><g transform="translate(44 223)"><rect width="367.49" height="354.547" fill="#1bd741"/><g transform="translate(41.588 44.385)"><path d="M68.494,334.1l19.912-66.038A125.561,125.561,0,0,1,68.86,200.9c0-73.1,63.69-132.575,141.975-132.575S352.808,127.794,352.808,200.9,289.119,333.471,210.834,333.471a149.706,149.706,0,0,1-69.409-16.9Zm76.66-41.65,4.346,2.478a123.971,123.971,0,0,0,61.335,16.054c65.005,0,117.89-49.384,117.89-110.086S275.839,90.81,210.834,90.81,92.943,140.194,92.943,200.9a104.467,104.467,0,0,0,18.615,59.4l2.927,4.255-11.466,38.03Z" transform="translate(-68.494 -68.321)" fill="#fff"/><path d="M185.571,153.407l-10.967-.563a13.786,13.786,0,0,0-9.427,3.037c-5.317,4.348-13.818,12.754-16.429,23.708-3.894,16.333,2.124,36.333,17.7,56.333s44.6,52,95.922,65.667c16.539,4.4,29.549,1.435,39.586-4.612a33.388,33.388,0,0,0,15.406-21.166l1.751-7.7a5.274,5.274,0,0,0-3.178-5.98L278.868,246.04a5.91,5.91,0,0,0-6.878,1.591L257.44,265.395a4.32,4.32,0,0,1-4.68,1.312c-9.965-3.3-43.343-16.463-61.658-49.687a3.779,3.779,0,0,1,.53-4.419l13.906-15.15a5.107,5.107,0,0,0,.926-5.6l-15.977-35.2A5.681,5.681,0,0,0,185.571,153.407Z" transform="translate(-90.865 -95.101)" fill="#fff"/></g></g><g transform="translate(651.15 223)"><path d="M0,0V354.547H367.34V0Z" fill="#3a76f0"/><path d="M232.7,162.861l2.147,8.832a86.1,86.1,0,0,0-24.02,10.1l-4.592-7.811A93.642,93.642,0,0,1,232.7,162.861Zm45.92,0-2.147,8.832a86.1,86.1,0,0,1,24.02,10.1l4.646-7.811A94.313,94.313,0,0,0,278.623,162.861ZM173.767,206.939a97.315,97.315,0,0,0-10.95,26.911l8.695,2.18a88.987,88.987,0,0,1,9.945-24.4Zm-4.782,50.233a89.312,89.312,0,0,1,.98-13.206l-8.86-1.367a98.671,98.671,0,0,0,0,29.119l8.858-1.352a89.552,89.552,0,0,1-.978-13.193Zm136.1,83.161L300.5,332.55a85.616,85.616,0,0,1-23.993,10.1l2.147,8.832A94.374,94.374,0,0,0,305.088,340.333Zm37.252-83.161a89.522,89.522,0,0,1-.977,13.186l8.857,1.36a98.671,98.671,0,0,0,0-29.119l-8.858,1.38A89.267,89.267,0,0,1,342.341,257.172Zm6.168,23.3-8.695-2.18a88.824,88.824,0,0,1-9.945,24.427l7.69,4.692a97.149,97.149,0,0,0,10.95-26.938Zm-79.858,63.758a85.37,85.37,0,0,1-25.976,0l-1.331,9a93.987,93.987,0,0,0,28.639,0Zm56.789-34.832a87.128,87.128,0,0,1-18.368,18.63l5.326,7.342a97.256,97.256,0,0,0,20.27-20.507Zm-18.368-123.1a87.266,87.266,0,0,1,18.368,18.658l7.228-5.465a97.125,97.125,0,0,0-20.216-20.535ZM185.886,204.952a87.265,87.265,0,0,1,18.368-18.658l-5.38-7.342a97.127,97.127,0,0,0-20.216,20.535Zm151.673,1.987-7.69,4.692A88.485,88.485,0,0,1,339.814,236l8.695-2.18A97.146,97.146,0,0,0,337.558,206.939ZM242.675,170.12a85.372,85.372,0,0,1,25.976,0l1.331-9a93.988,93.988,0,0,0-28.639,0Zm-52.2,167.674-18.5,4.361,4.32-18.8-8.722-2.07-4.32,18.8a9.231,9.231,0,0,0,1.106,6.886,8.974,8.974,0,0,0,5.579,4.071,9.232,9.232,0,0,0,4.076,0l18.5-4.333Zm-21.058-24.62,8.749,2.042,2.989-13.028a88.052,88.052,0,0,1-9.646-23.9l-8.695,2.18a98.447,98.447,0,0,0,8.8,23.1Zm41.844,19.707-12.825,3.036,2.038,8.887,9.429-2.236a93.945,93.945,0,0,0,22.743,8.943l2.147-8.832a85.317,85.317,0,0,1-23.449-9.853Zm44.4-154.647c-42.931.028-77.684,35.384-77.684,78.966a80.054,80.054,0,0,0,11.928,41.953l-7.472,32.4,31.872-7.59a77.023,77.023,0,0,0,107.165-24.73c22.851-36.875,11.983-85.617-24.319-108.857a77.012,77.012,0,0,0-41.491-12.144" transform="translate(-71.993 -79.899)" fill="#fff"/></g><g transform="translate(455 314)" fill="none" stroke="#000" stroke-width="7"><ellipse cx="85.5" cy="84.5" rx="85.5" ry="84.5" stroke="none"/><ellipse cx="85.5" cy="84.5" rx="82" ry="81" fill="none"/></g><line y1="96" x2="70" transform="translate(580.5 228.5)" fill="none" stroke="#000" stroke-linecap="round" stroke-width="7"/><line y1="105" x2="73" transform="translate(413.5 467.5)" fill="none" stroke="#000" stroke-linecap="round" stroke-width="7"/><text transform="translate(501 433)" font-size="93" font-family="NBALakers, NBA Lakers"><tspan x="0" y="0">VS</tspan></text></g></svg>